<?xml version="1.0" encoding="UTF-8" standalone="no"?>
<svg
   height="48"
   width="48"
   version="1.1"
   id="svg16"
   sodipodi:docname="menu-settings.svg"
   inkscape:version="1.2.2 (b0a8486541, 2022-12-01)"
   xml:space="preserve"
   xmlns:inkscape="http://www.inkscape.org/namespaces/inkscape"
   xmlns:sodipodi="http://sodipodi.sourceforge.net/DTD/sodipodi-0.dtd"
   xmlns:xlink="http://www.w3.org/1999/xlink"
   xmlns="http://www.w3.org/2000/svg"
   xmlns:svg="http://www.w3.org/2000/svg"><defs
     id="defs16"><style
       type="text/css"
       id="current-color-scheme">
      .ColorScheme-Text {
        color:#232629;
      }
      </style></defs><sodipodi:namedview
     id="namedview16"
     pagecolor="#ffffff"
     bordercolor="#666666"
     borderopacity="1.0"
     inkscape:showpageshadow="2"
     inkscape:pageopacity="0.0"
     inkscape:pagecheckerboard="0"
     inkscape:deskcolor="#d1d1d1"
     inkscape:zoom="2.3229167"
     inkscape:cx="-16.573991"
     inkscape:cy="48.860987"
     inkscape:window-width="1440"
     inkscape:window-height="815"
     inkscape:window-x="0"
     inkscape:window-y="0"
     inkscape:window-maximized="1"
     inkscape:current-layer="svg16"
     showgrid="false" /><linearGradient
     id="c"
     gradientUnits="userSpaceOnUse"
     x1="10"
     x2="34"
     xlink:href="#a"
     y1="10"
     y2="34"
     gradientTransform="translate(-43.056824,0.063072)" /><linearGradient
     id="d"
     gradientUnits="userSpaceOnUse"
     x2="0"
     y1="20"
     y2="44"><stop
       offset="0"
       stop-color="#eff0f1"
       id="stop1" /><stop
       offset="1"
       stop-color="#bdc3c7"
       id="stop2" /></linearGradient><linearGradient
     id="b"
     gradientTransform="matrix(1 0 0 1.08333 0 -6.84)"
     gradientUnits="userSpaceOnUse"
     x2="0"
     y1="12"
     y2="32"><stop
       offset="0"
       stop-color="#9559b6"
       id="stop3" /><stop
       offset="1"
       stop-color="#8e44ad"
       id="stop4" /></linearGradient><linearGradient
     id="a"
     gradientTransform="translate(384.57 500.8)"
     gradientUnits="userSpaceOnUse"
     x1="10"
     x2="15"
     y1="36"
     y2="41"><stop
       offset="0"
       stop-color="#292c2f"
       id="stop5" /><stop
       offset="1"
       stop-opacity="0"
       id="stop6" /></linearGradient><linearGradient
     id="e"
     gradientTransform="translate(14.1 1)"
     gradientUnits="userSpaceOnUse"
     x1="9.905"
     x2="14.905"
     xlink:href="#a"
     y1="36"
     y2="41" /><linearGradient
     id="f"
     gradientTransform="translate(0 1)"
     gradientUnits="userSpaceOnUse"
     x1="10"
     x2="15"
     xlink:href="#a"
     y1="36"
     y2="41" /><path
     id="path3243"
     style="color:#000000;fill:#0074a7;stroke:none;stroke-width:0.970279;fill-opacity:1"
     inkscape:connector-curvature="0"
     d="m 22.881077,2.5946775 c -0.451554,0.030916 -0.890499,0.1008413 -1.334166,0.1516085 h -0.03006 L 20.455662,8.5376427 C 18.725832,8.9315543 17.09862,9.6000793 15.634527,10.50853 L 10.87106,7.0822274 C 9.5841604,8.0813113 8.4131112,9.2465367 7.3842591,10.50853 l 3.3050259,4.821137 c -1.0034659,1.533526 -1.7581293,3.284672 -2.183138,5.12419 -5.07e-5,0.0088 -5.07e-5,0.02883 0,0.03026 l -5.7611076,0.909638 c -0.1053048,0.86028 -0.1515942,1.749365 -0.1515942,2.637943 0,0.727043 0.020075,1.444362 0.090933,2.152804 l 5.7611076,1.030915 c 0.409715,2.000628 1.1880684,3.869009 2.2740542,5.518553 l -3.426304,4.699859 c 0.9812741,1.218203 2.114131,2.327341 3.335275,3.305025 l 4.851385,-3.335273 c 1.695539,1.081603 3.588288,1.840026 5.639831,2.21347 l 0.909609,5.730859 c 0.646418,0.05879 1.309345,0.06064 1.970944,0.06064 0.934007,0 1.826231,-0.0354 2.728915,-0.151606 l 1.091611,-5.852142 c 1.947819,-0.484743 3.777696,-1.325686 5.366744,-2.456026 l 4.669327,3.396054 c 1.210938,-1.030237 2.318267,-2.214432 3.274776,-3.487082 l -3.396054,-4.912166 c 0.919731,-1.58834 1.556905,-3.340928 1.879888,-5.215218 l 5.730858,-0.909637 c 0.05043,-0.59802 0.06021,-1.178004 0.06021,-1.788972 0,-1.061701 -0.123469,-2.102681 -0.272963,-3.122968 l -5.821607,-1.061249 c -0.456219,-1.684627 -1.204776,-3.256401 -2.152748,-4.66961 l 3.426302,-4.699859 C 39.523471,9.1792396 38.311968,7.9794117 36.977462,6.9607369 L 32.035048,10.356792 C 30.614546,9.5166683 29.08594,8.8720877 27.426219,8.5071814 L 26.516609,2.7460728 C 25.688698,2.6486778 24.853919,2.5944681 24,2.5944681 c -0.23084,0 -0.468346,-0.00679 -0.697473,0 -0.111651,0.00354 -0.222181,-0.00679 -0.333471,0 -0.03005,0.00201 -0.06113,-0.00201 -0.09122,0 z m 0.788389,14.7362145 c 0.110837,-0.006 0.221417,0 0.333584,0 3.589137,0 6.519022,2.929884 6.519022,6.519021 0,3.589137 -2.929885,6.488773 -6.519022,6.488773 -3.589137,0 -6.488773,-2.899636 -6.488773,-6.488773 0,-3.476905 2.721281,-6.344879 6.155189,-6.519021 z" /></svg>
