<?xml version="1.0" encoding="UTF-8" standalone="no"?>
<svg
   version="1.1"
   viewBox="0 0 24 24"
   width="24"
   height="24"
   id="svg2"
   sodipodi:docname="performance.svg"
   inkscape:version="1.4 (e7c3feb100, 2024-10-09)"
   xmlns:inkscape="http://www.inkscape.org/namespaces/inkscape"
   xmlns:sodipodi="http://sodipodi.sourceforge.net/DTD/sodipodi-0.dtd"
   xmlns="http://www.w3.org/2000/svg"
   xmlns:svg="http://www.w3.org/2000/svg">
  <sodipodi:namedview
     id="namedview2"
     pagecolor="#ffffff"
     bordercolor="#000000"
     borderopacity="0.25"
     inkscape:showpageshadow="2"
     inkscape:pageopacity="0.0"
     inkscape:pagecheckerboard="0"
     inkscape:deskcolor="#d1d1d1"
     inkscape:zoom="33.291667"
     inkscape:cx="12"
     inkscape:cy="12"
     inkscape:window-width="1920"
     inkscape:window-height="1008"
     inkscape:window-x="0"
     inkscape:window-y="0"
     inkscape:window-maximized="1"
     inkscape:current-layer="svg2" />
  <defs
     id="defs1">
    <style
       id="current-color-scheme"
       type="text/css">.ColorScheme-Text {
                color:#232629;
            }</style>
  </defs>
  <path
     class="ColorScheme-Text"
     d="M 20,4 C 15.2499,4 10.5035,5.2582 8.234,9.75 l -3.1406,1.2559 2.0547,2.0547 c -0.056628,0.30481 -0.10791,0.6152 -0.14844,0.93945 l 3,3 c 0.29825,-0.03728 0.58541,-0.08189 0.86719,-0.13281 l 2.1328,2.1328 1.3047,-3.2598 c 4.4484,-2.2797 5.6953,-7.009 5.6953,-11.74 z m -1,1 c 0,5 -3,10 -8.6992,10.75 L 8.25,13.6992 C 9,8 14,5 19,5 Z m -4,2 c -1.0986,3e-7 -2,0.90136 -2,2 0,1.0986 0.90136,2 2,2 1.09864,0 2,-0.90136 2,-2 0,-1.0986 -0.90136,-2 -2,-2 z m 0,1 c 0.5582,10e-8 1,0.44179 1,1 0,0.55821 -0.4418,1 -1,1 -0.5582,-10e-8 -1,-0.44179 -1,-1 0,-0.55821 0.4418,-1 1,-1 z"
     fill="currentColor"
     id="path1"
     style="fill:#0074a7;fill-opacity:1" />
  <path
     d="M 6.8,15.2 C 6,16 5,18 5,19 6,19 8,18 8.8,17.2"
     fill="none"
     class="ColorScheme-Text"
     stroke="currentColor"
     id="path2"
     style="stroke:#0074a7;stroke-opacity:1" />
</svg>
