<?xml version="1.0" encoding="UTF-8" standalone="no"?>
<svg
   version="1.1"
   viewBox="0 0 24 24"
   width="24"
   height="24"
   id="svg1"
   sodipodi:docname="power-saver.svg"
   inkscape:version="1.4 (e7c3feb100, 2024-10-09)"
   xmlns:inkscape="http://www.inkscape.org/namespaces/inkscape"
   xmlns:sodipodi="http://sodipodi.sourceforge.net/DTD/sodipodi-0.dtd"
   xmlns="http://www.w3.org/2000/svg"
   xmlns:svg="http://www.w3.org/2000/svg">
  <sodipodi:namedview
     id="namedview1"
     pagecolor="#ffffff"
     bordercolor="#000000"
     borderopacity="0.25"
     inkscape:showpageshadow="2"
     inkscape:pageopacity="0.0"
     inkscape:pagecheckerboard="0"
     inkscape:deskcolor="#d1d1d1"
     inkscape:zoom="33.291667"
     inkscape:cx="12"
     inkscape:cy="12"
     inkscape:window-width="1920"
     inkscape:window-height="1008"
     inkscape:window-x="0"
     inkscape:window-y="0"
     inkscape:window-maximized="1"
     inkscape:current-layer="svg1" />
  <defs
     id="defs1">
    <style
       type="text/css"
       id="current-color-scheme">
            .ColorScheme-Text {
                color:#232629;
            }
        </style>
  </defs>
  <path
     style="fill:#0074a7;fill-opacity:1;stroke:none"
     class="ColorScheme-Text"
     d="M 17.01255,3.9999 C 16.89982,4.30657 16.7538,4.60738 16.57688,4.90029 15.47873,6.42148 14.382664,7.2428126 11.12342,8.31044 7.4942845,9.4884887 5.68326,12.57129 6.06641,15.69727 4.96337,16.84249 4.00002,18.41887 4.00002,19.9999 h 1.04439 c 0,-1.34682 0.63636,-2.59732 1.61471,-3.58985 1.28933,1.29059 3.18179,1.58852 5.00203,1.60371 4.59923,0 8.33885,-3.47592 8.33885,-7.75 0,-2.57268 -0.90543,-4.85355 -2.98719,-6.26367 z m 0.36035,1.5664 c 1.26039,1.21755 1.58448,2.87043 1.58448,4.69727 0,3.75049 -3.26067,6.78125 -7.29649,6.78125 -1.60684,0 -3.08645,-0.48514 -4.28955,-1.30078 0.76983,-0.57166 1.69537,-1.01114 2.72602,-1.27539 0.62964,-0.13912 1.28398,-0.39144 1.92184,-0.7168 L 14.35628,14.37112 15,14.20783 v -0.5 l -0.57646,0.11824 -1.17265,-0.8086 C 14.13766,12.41098 15,12 16,11 V 8.99805 c -0.84005,1.96187 -3.68476,3.91079 -5.90264,4.47255 -0.004,9.5e-4 -0.008,0.003 -0.0122,0.004 L 10.25414,12.5 11,11 h -0.52117 l -0.87006,1 -0.86524,1.88476 c -0.75822,0.295 -1.11325,0.4851 -1.72523,0.94448 -0.16924,-2.51266 1.6260001,-4.720529 4.361065,-5.6296344 1.281974,-0.403324 2.231277,-0.8439132 3.063577,-1.2752132 1.355483,-0.7454568 2.184728,-1.5841417 2.878021,-2.4915956 z"
     id="path1" />
</svg>
