<?xml version="1.0" encoding="UTF-8" standalone="no"?>
<!-- Created with Inkscape (http://www.inkscape.org/) -->

<svg
   width="485"
   height="130"
   viewBox="0 0 128.32291 34.395834"
   version="1.1"
   id="svg5"
   xml:space="preserve"
   inkscape:version="1.4 (e7c3feb100, 2024-10-09)"
   sodipodi:docname="creative.svg"
   xmlns:inkscape="http://www.inkscape.org/namespaces/inkscape"
   xmlns:sodipodi="http://sodipodi.sourceforge.net/DTD/sodipodi-0.dtd"
   xmlns="http://www.w3.org/2000/svg"
   xmlns:svg="http://www.w3.org/2000/svg"><sodipodi:namedview
     id="namedview7"
     pagecolor="#ffffff"
     bordercolor="#000000"
     borderopacity="0.25"
     inkscape:showpageshadow="2"
     inkscape:pageopacity="0.0"
     inkscape:pagecheckerboard="0"
     inkscape:deskcolor="#d1d1d1"
     inkscape:document-units="px"
     showgrid="false"
     inkscape:zoom="1.0973349"
     inkscape:cx="128.49313"
     inkscape:cy="-41.464096"
     inkscape:window-width="1920"
     inkscape:window-height="1008"
     inkscape:window-x="0"
     inkscape:window-y="0"
     inkscape:window-maximized="1"
     inkscape:current-layer="layer1" /><defs
     id="defs2" /><g
     inkscape:label="Capa 1"
     inkscape:groupmode="layer"
     id="layer1"><g
       transform="matrix(0.43895762,0,0,0.43895762,-47.331329,-638.43748)"
       id="g2282"
       style="fill:#0074a7;fill-opacity:1"><path
         sodipodi:nodetypes="scscscccsccccscccscccssccssccsccsccscccccccccccscscscccccccccccccccccccccccccccccccccccccccccccccccccccccc"
         aria-label="CREATIVE"
         id="text2-4-1-2-4-2"
         d="m 130.98275,1512.4575 c -2.78694,0 -5.36222,-0.4586 -7.72583,-1.3759 -2.36362,-0.9525 -4.40973,-2.2754 -6.13834,-3.9687 -1.72861,-1.6934 -3.08681,-3.6866 -4.07459,-5.9796 -0.9525,-2.2931 -1.42875,-4.7978 -1.42875,-7.5142 0,-2.7164 0.47625,-5.2211 1.42875,-7.5142 0.98778,-2.293 2.34598,-4.2862 4.07459,-5.9795 1.76389,-1.6934 3.82764,-2.9987 6.19125,-3.9159 2.36362,-0.9525 4.93889,-1.4287 7.72584,-1.4287 2.68111,0 5.20348,0.4586 7.56709,1.3758 2.36361,0.8819 4.35681,2.2225 5.97959,4.0217 l -2.48709,2.4871 c -1.51695,-1.5523 -3.19264,-2.6635 -5.02708,-3.3338 -1.83445,-0.7056 -3.81001,-1.0583 -5.92668,-1.0583 -2.2225,0 -4.28625,0.388 -6.19125,1.1641 -1.905,0.7409 -3.56306,1.8168 -4.97417,3.228 -1.41111,1.3758 -2.52236,2.9986 -3.33375,4.8683 -0.77611,1.8344 -1.16417,3.8629 -1.16417,6.0854 0,2.2225 0.38806,4.2686 1.16417,6.1383 0.81139,1.8345 1.92264,3.4573 3.33375,4.8684 1.41111,1.3758 3.06917,2.4518 4.97417,3.2279 1.905,0.7408 3.96875,1.1113 6.19125,1.1113 2.11667,0 4.09223,-0.3528 5.92668,-1.0584 1.83444,-0.7055 3.51013,-1.8344 5.02708,-3.3866 l 2.48709,2.487 c -1.62278,1.7992 -3.61598,3.1574 -5.97959,4.0746 -2.36361,0.9172 -4.90362,1.3759 -7.62001,1.3759 z m 21.96043,-0.3175 v -37.0417 h 13.86418 c 3.13972,0 5.83847,0.5115 8.09625,1.5346 2.25778,0.9877 3.98639,2.4341 5.18585,4.3391 1.23471,1.8698 1.85207,4.1452 1.85207,6.8263 0,2.6105 -0.61736,4.8683 -1.85207,6.7733 -1.19946,1.8697 -2.92807,3.3161 -5.18585,4.3392 -2.25778,0.9878 -4.95653,1.4817 -8.09625,1.4817 h -11.69458 l 1.74625,-1.7992 v 13.5467 z m 25.29418,0 -9.525,-13.4409 h 4.23333 l 9.57792,13.4409 z m -21.37833,-13.2292 -1.74625,-1.8521 h 11.58875 c 3.70416,0 6.50875,-0.8114 8.41375,-2.4342 1.94029,-1.6227 2.91043,-3.8982 2.91043,-6.8262 0,-2.9633 -0.97014,-5.2564 -2.91043,-6.8792 -1.905,-1.6228 -4.70959,-2.4342 -8.41375,-2.4342 h -11.58875 l 1.74625,-1.852 z m 37.8354,-7.2496 h 19.57918 v 3.3338 h -19.57918 z m 0.42333,17.0921 h 22.27793 v 3.3867 h -26.19376 v -37.0417 h 25.40001 v 3.3866 h -21.48418 z m 22.89635,12.7543 25.49796,-55.7769 h 5.81672 l 25.49796,55.7769 h -6.21512 l -23.42626,-52.3506 h 2.39043 l -23.42624,52.3506 z m 62.45807,-9.3676 v -33.6551 h -13.01751 v -3.3866 h 29.95085 v 3.3866 h -13.01751 v 33.6551 z m 23.17749,0 v -37.0417 h 3.91583 v 37.0417 z m 70.02266,-20.4788 h 19.57919 v 3.3338 h -19.57919 z m 0.42333,17.0921 h 22.27794 v 3.3867 h -26.19377 v -37.0417 h 25.40002 v 3.3866 h -21.48419 z"
         style="-inkscape-font-specification:'Montserrat, Normal';stroke-width:0.264583;fill:#0074a7;fill-opacity:1"
         inkscape:connector-curvature="0" /><path
         sodipodi:nodetypes="ccccccccc"
         aria-label="CREATIVE"
         id="text2-4-1-2-4-2-9"
         d="m 370.22576,1465.7302 -25.498,55.7769 h -5.8167 l -25.498,-55.7769 h 6.2152 l 23.4262,52.3506 h -2.3904 l 23.4262,-52.3506 z"
         style="-inkscape-font-specification:'Montserrat, Normal';fill:#0074a7;stroke-width:0.264583;fill-opacity:1"
         inkscape:connector-curvature="0" /></g></g></svg>
