<?xml version="1.0" encoding="UTF-8" standalone="no"?>
<!-- Created with Inkscape (http://www.inkscape.org/) -->

<svg
   width="485"
   height="130"
   viewBox="0 0 128.32291 34.395834"
   version="1.1"
   id="svg5"
   xml:space="preserve"
   inkscape:version="1.4 (e7c3feb100, 2024-10-09)"
   sodipodi:docname="elemental.svg"
   xmlns:inkscape="http://www.inkscape.org/namespaces/inkscape"
   xmlns:sodipodi="http://sodipodi.sourceforge.net/DTD/sodipodi-0.dtd"
   xmlns="http://www.w3.org/2000/svg"
   xmlns:svg="http://www.w3.org/2000/svg"><sodipodi:namedview
     id="namedview7"
     pagecolor="#ffffff"
     bordercolor="#000000"
     borderopacity="0.25"
     inkscape:showpageshadow="2"
     inkscape:pageopacity="0.0"
     inkscape:pagecheckerboard="0"
     inkscape:deskcolor="#d1d1d1"
     inkscape:document-units="px"
     showgrid="false"
     inkscape:zoom="1.0973349"
     inkscape:cx="328.06757"
     inkscape:cy="1.3669482"
     inkscape:window-width="1920"
     inkscape:window-height="1008"
     inkscape:window-x="0"
     inkscape:window-y="0"
     inkscape:window-maximized="1"
     inkscape:current-layer="layer1" /><defs
     id="defs2" /><g
     inkscape:label="Capa 1"
     inkscape:groupmode="layer"
     id="layer1"><path
       d="M 10.005013,25.970111 H 1.9148189 c -0.069907,0 -0.1326372,-0.02028 -0.1737672,-0.06954 -0.043134,-0.04065 -0.069907,-0.0843 -0.069907,-0.132541 V 8.6238589 c 0,-0.040653 0.026911,-0.09141 0.069907,-0.132546 0.041131,-0.040652 0.1038462,-0.064468 0.1737672,-0.064468 H 10.005013 V 11.604893 H 5.0301441 v 3.968108 H 11.91469 c 0.161227,0 0.238268,0.07005 0.238268,0.194995 v 2.785703 c 0,0.0508 -0.02133,0.0914 -0.06278,0.132542 -0.04117,0.05079 -0.10573,0.07005 -0.175555,0.07005 H 5.0300773 v 3.946563 H 10.004946 Z M 23.51792,22.702533 c 0.161233,0 0.238273,0.07005 0.238273,0.216839 v 2.848377 c 0,0.0508 -0.02133,0.0914 -0.06278,0.132537 -0.04313,0.05079 -0.105721,0.07005 -0.175547,0.07005 h -9.236709 c -0.06984,0 -0.127255,-0.02028 -0.175552,-0.07005 -0.04313,-0.04066 -0.06278,-0.08431 -0.06278,-0.132537 V 22.702585 Z M 14.042933,19.343557 V 8.6235206 c 0,-0.040653 0.01985,-0.091402 0.06278,-0.1325384 0.04823,-0.040652 0.105726,-0.064468 0.175562,-0.064468 h 2.896767 c 0.07699,0 0.125375,0.020288 0.154067,0.064468 0.04117,0.040653 0.06278,0.089881 0.06278,0.1325384 V 19.343557 Z m 19.93707,6.626554 h -8.097365 c -0.06983,0 -0.132585,-0.02028 -0.175547,-0.06954 -0.04117,-0.04065 -0.06278,-0.0843 -0.06278,-0.132541 V 8.6238589 c 0,-0.040653 0.02133,-0.09141 0.06278,-0.132546 0.04313,-0.040652 0.105721,-0.064468 0.175547,-0.064468 h 8.097365 v 3.1780481 h -4.98381 v 3.968108 h 6.88633 c 0.161228,0 0.24543,0.07005 0.24543,0.194995 v 2.785703 c 0,0.0508 -0.02133,0.0914 -0.06991,0.132542 -0.04313,0.05079 -0.09846,0.07005 -0.175551,0.07005 h -6.886326 v 3.946561 h 4.983811 z m 19.732839,-9.802825 -4.471461,8.971631 c -0.02691,0.08227 -0.09674,0.125432 -0.195253,0.125432 H 46.34463 c -0.02844,0 -0.06991,-0.01522 -0.132589,-0.04065 -0.04318,-0.02534 -0.06991,-0.05536 -0.08425,-0.08228 l -4.758092,-9.217003 v 9.845795 c 0,0.0508 -0.02133,0.0914 -0.06984,0.132542 -0.04313,0.05079 -0.09847,0.07005 -0.175552,0.07005 h -2.889601 c -0.07699,0 -0.134365,-0.02028 -0.175557,-0.07005 -0.03407,-0.04065 -0.04822,-0.0843 -0.04822,-0.132542 V 8.6260566 c 0,-0.040653 0.01417,-0.091402 0.04822,-0.1325311 0.04117,-0.040653 0.09847,-0.064469 0.175557,-0.064469 h 2.937969 c 0.02844,0 0.06278,0.015221 0.105726,0.040653 0.06277,0.030508 0.09847,0.055353 0.111109,0.084286 L 47.68109,21.409439 53.671708,8.5539961 c 0.0555,-0.084286 0.139746,-0.1274581 0.238267,-0.1274581 h 2.896778 c 0.06991,0 0.132589,0.020288 0.175547,0.064468 0.04117,0.040648 0.06278,0.089888 0.06278,0.1325459 V 21.736956 h -3.332102 z m 14.018095,9.802825 h -8.097356 c -0.06991,0 -0.132589,-0.02028 -0.175551,-0.06954 -0.04113,-0.04065 -0.06278,-0.0843 -0.06278,-0.132541 V 8.6238589 c 0,-0.040653 0.02133,-0.09141 0.06278,-0.132546 0.04313,-0.040652 0.105726,-0.064468 0.175551,-0.064468 h 8.097356 v 3.1780481 h -4.98381 v 3.968108 h 6.886335 c 0.161233,0 0.245435,0.07005 0.245435,0.194995 v 2.785703 c 0,0.0508 -0.02133,0.0914 -0.06991,0.132542 -0.04313,0.05079 -0.09846,0.07005 -0.175551,0.07005 H 62.7471 v 3.946561 h 4.983811 z M 86.281425,8.4264402 c 0.06991,0 0.13259,0.020365 0.175552,0.064469 0.04117,0.040648 0.06278,0.089888 0.06278,0.1325388 v 17.144171 c 0,0.0508 -0.02133,0.0914 -0.06278,0.132542 -0.04313,0.05079 -0.105722,0.07005 -0.175552,0.07005 h -2.896778 -0.105726 c -0.04823,-0.0102 -0.07699,-0.04065 -0.09136,-0.07005 l -8.0669,-11.553053 v 7.411229 H 71.761687 V 8.6234476 c 0,-0.040653 0.01985,-0.091402 0.06991,-0.1325388 0.04113,-0.040653 0.08963,-0.064469 0.154065,-0.064469 h 2.911107 c 0.03407,0 0.06983,0.00514 0.111099,0.020365 0.04117,0 0.07699,0.015217 0.09136,0.040653 l 8.08841,11.5602582 V 8.6200436 c 0,-0.040652 0.02133,-0.091409 0.06446,-0.1325459 0.06277,-0.040653 0.12538,-0.064468 0.202458,-0.064468 z M 95.602342,14.7807 v 10.986996 c 0,0.0508 -0.02844,0.0914 -0.09136,0.132537 -0.04117,0.0508 -0.09673,0.07006 -0.173767,0.07006 H 92.5103 c -0.07698,0 -0.134364,-0.02028 -0.175546,-0.07006 -0.04313,-0.04066 -0.06991,-0.0843 -0.06991,-0.132537 V 14.7807 Z m -6.710775,-3.351761 c -0.161227,0 -0.24543,-0.06299 -0.24543,-0.195513 V 8.6233145 c 0,-0.040648 0.02133,-0.091401 0.06991,-0.1325378 0.04313,-0.040653 0.09847,-0.064469 0.175552,-0.064469 H 98.95419 c 0.077,0 0.13259,0.020288 0.17554,0.064469 0.0482,0.040652 0.0699,0.089887 0.0699,0.1325378 v 2.6101115 c 0,0.132538 -0.0842,0.195513 -0.24542,0.195513 z M 114.85328,25.70498 c 0.0284,0.07719 0.0213,0.139651 -0.0213,0.195515 -0.0412,0.05079 -0.0968,0.06953 -0.17379,0.06953 h -3.02397 c -0.0341,0 -0.07,-0.0051 -0.1111,-0.02028 -0.0431,-0.03551 -0.0699,-0.07005 -0.0914,-0.11274 l -3.46466,-9.783118 -3.42167,9.783118 c -0.0142,0.08431 -0.0842,0.132537 -0.2168,0.132537 h -3.00247 c -0.10385,0 -0.17377,-0.02028 -0.22394,-0.06954 -0.027,-0.05536 -0.027,-0.118313 0,-0.195496 l 6.64807,-17.1513377 c 0.0285,-0.084294 0.10573,-0.1274591 0.21679,-0.1274591 0.12,0 0.18987,0.040653 0.22395,0.1274591 z m 11.56023,-3.002447 c 0.16124,0 0.23826,0.07005 0.23826,0.216839 v 2.848377 c 0,0.0508 -0.0213,0.0914 -0.0628,0.132537 -0.0412,0.05079 -0.10573,0.07005 -0.17555,0.07005 h -9.23673 c -0.07,0 -0.12539,-0.02028 -0.17555,-0.07005 -0.0412,-0.04066 -0.0628,-0.08431 -0.0628,-0.132537 v -3.065164 z m -9.47498,-3.358976 V 8.6235206 c 0,-0.040653 0.0213,-0.091402 0.0628,-0.1325384 0.0503,-0.040652 0.10573,-0.064468 0.17554,-0.064468 h 2.89678 c 0.077,0 0.12725,0.020288 0.15407,0.064468 0.0431,0.040653 0.0628,0.089881 0.0628,0.1325384 V 19.343557 Z"
       style="fill:#0074a7;fill-opacity:1;fill-rule:nonzero;stroke:none;stroke-width:1.34359"
       id="path1" /></g></svg>
