<?xml version="1.0" encoding="UTF-8" standalone="no"?>
<!-- Created with Inkscape (http://www.inkscape.org/) -->

<svg
   width="485"
   height="130"
   viewBox="0 0 128.32291 34.395834"
   version="1.1"
   id="svg5"
   xml:space="preserve"
   inkscape:version="1.4 (e7c3feb100, 2024-10-09)"
   sodipodi:docname="evo.svg"
   xmlns:inkscape="http://www.inkscape.org/namespaces/inkscape"
   xmlns:sodipodi="http://sodipodi.sourceforge.net/DTD/sodipodi-0.dtd"
   xmlns="http://www.w3.org/2000/svg"
   xmlns:svg="http://www.w3.org/2000/svg"><sodipodi:namedview
     id="namedview7"
     pagecolor="#ffffff"
     bordercolor="#000000"
     borderopacity="0.25"
     inkscape:showpageshadow="2"
     inkscape:pageopacity="0.0"
     inkscape:pagecheckerboard="0"
     inkscape:deskcolor="#d1d1d1"
     inkscape:document-units="px"
     showgrid="false"
     inkscape:zoom="0.77593295"
     inkscape:cx="266.77563"
     inkscape:cy="61.861015"
     inkscape:window-width="1696"
     inkscape:window-height="1105"
     inkscape:window-x="0"
     inkscape:window-y="0"
     inkscape:window-maximized="0"
     inkscape:current-layer="layer1" /><defs
     id="defs2" /><g
     inkscape:label="Capa 1"
     inkscape:groupmode="layer"
     id="layer1"><path
       style="display:inline;fill:#0074a7;stroke-width:0.40734;fill-opacity:1"
       d="M 59.552701,32.21747 C 59.450361,31.960682 48.042506,2.6465647 47.909826,2.2994597 c -0.03189,-0.083938 0.04987,-0.089635 1.292284,-0.089635 h 1.32653 l 4.560391,11.5023993 c 2.50814,6.326327 4.577214,11.506593 4.597747,11.511705 0.02034,0.0051 2.09136,-5.17099 4.601814,-11.502412 L 68.853008,2.2098239 h 1.328923 c 1.241253,0 1.327288,0.00591 1.303447,0.089635 -0.03628,0.1283333 -11.718386,30.0904201 -11.764553,30.1741151 -0.02512,0.0459 -0.08281,-0.04108 -0.168124,-0.256104 z m 24.187806,-6.322557 c -1.151272,-0.09715 -1.609475,-0.149566 -2.228068,-0.254889 -5.173959,-0.880917 -7.959942,-4.031476 -8.552181,-9.671398 -0.104175,-0.991116 -0.104175,-3.118957 0,-4.110072 0.591204,-5.6298071 3.373398,-8.7770748 8.552181,-9.6743167 2.524766,-0.4374167 5.77569,-0.344062 8.04494,0.2310201 0.975851,0.2473264 1.620398,0.4868154 2.429521,0.9026938 2.912563,1.49705 4.552699,4.2127917 5.053476,8.3675688 0.124992,1.037756 0.124992,3.418373 0,4.456136 -0.363077,3.012051 -1.298541,5.207216 -2.902832,6.811566 -1.627813,1.627726 -3.772597,2.517869 -6.914042,2.869454 -0.491374,0.05503 -3.056765,0.108206 -3.482995,0.07227 z m 3.437664,-3.013812 c 2.328376,-0.282107 4.086161,-1.003105 5.250746,-2.153666 1.070379,-1.057636 1.702287,-2.590241 1.975025,-4.790655 0.08883,-0.716482 0.08883,-3.329899 0,-4.046383 C 94.018497,8.7810675 92.955136,7.0414921 90.774313,5.9530355 89.174207,5.1543382 86.925408,4.758408 84.457573,4.8408498 80.221551,4.9823529 77.604052,6.252 76.443132,8.728405 c -0.645862,1.377719 -0.91242,2.892587 -0.91242,5.185187 0,2.753348 0.428503,4.607898 1.395981,6.041707 1.164148,1.725114 3.381291,2.730954 6.608891,2.998162 0.758092,0.06272 2.874369,0.02069 3.642587,-0.07236 z M 31.188795,13.866444 V 2.1585994 h 5.936038 c 4.700806,0 5.941499,0.013355 5.962151,0.063988 0.07352,0.1809025 0.9068,2.3521709 0.9068,2.3630158 0,0.00681 -2.339419,0.00255 -5.198838,-0.010204 l -5.198837,-0.02299 v 4.0531483 4.0531505 h 5.724577 5.72442 l 0.421883,1.091189 c 0.232111,0.600151 0.422004,1.10723 0.422004,1.126832 0,0.01963 -2.765928,0.03567 -6.146461,0.03567 h -6.146423 v 4.123203 4.123216 h 7.754342 c 6.155313,0 7.759843,0.01319 7.780774,0.06399 0.08727,0.212473 0.85529,2.202703 0.85529,2.216604 0,0.05925 -1.486601,0.07514 -9.66773,0.103349 l -9.12999,0.03154 z"
       id="path2"
       inkscape:export-filename="Logo_EVO_14.png"
       inkscape:export-xdpi="96"
       inkscape:export-ydpi="96" /></g></svg>
