<?xml version="1.0" encoding="UTF-8" standalone="no"?>
<!-- Created with Inkscape (http://www.inkscape.org/) -->

<svg
   width="485"
   height="130"
   viewBox="0 0 128.32291 34.395834"
   version="1.1"
   id="svg5"
   xml:space="preserve"
   inkscape:version="1.4 (e7c3feb100, 2024-10-09)"
   sodipodi:docname="excalibur.svg"
   xmlns:inkscape="http://www.inkscape.org/namespaces/inkscape"
   xmlns:sodipodi="http://sodipodi.sourceforge.net/DTD/sodipodi-0.dtd"
   xmlns="http://www.w3.org/2000/svg"
   xmlns:svg="http://www.w3.org/2000/svg"><sodipodi:namedview
     id="namedview7"
     pagecolor="#ffffff"
     bordercolor="#000000"
     borderopacity="0.25"
     inkscape:showpageshadow="2"
     inkscape:pageopacity="0.0"
     inkscape:pagecheckerboard="0"
     inkscape:deskcolor="#d1d1d1"
     inkscape:document-units="px"
     showgrid="false"
     inkscape:zoom="1.0973349"
     inkscape:cx="318.04329"
     inkscape:cy="45.109292"
     inkscape:window-width="1920"
     inkscape:window-height="1008"
     inkscape:window-x="0"
     inkscape:window-y="0"
     inkscape:window-maximized="1"
     inkscape:current-layer="layer1" /><defs
     id="defs2" /><g
     inkscape:label="Capa 1"
     inkscape:groupmode="layer"
     id="layer1"><g
       id="g34"
       transform="matrix(0.29451466,0,0,0.29451466,68.600646,80.499637)"
       style="fill:#0074a7;fill-opacity:1"><path
         d="m -227.75906,-228.4596 v 27.06514 h 45.1086 v -4.50138 h -40.60719 v -6.77104 h 40.60719 v -4.52031 h -40.60719 v -6.75211 h 40.60719 v -4.5203 z m 154.739654,27.06514 h -31.585474 c -3.71965,0 -6.90342,-1.32393 -9.5513,-3.97182 -2.64789,-2.64789 -3.97183,-5.83163 -3.97183,-9.55129 0,-3.73227 1.32394,-6.92232 3.97183,-9.57022 2.64788,-2.64789 5.83165,-3.97181 9.5513,-3.97181 h 31.585474 v 4.5203 h -31.585474 c -2.48397,0 -4.60859,0.87631 -6.37384,2.62897 -1.76526,1.76526 -2.64788,3.89619 -2.64788,6.39276 0,2.48396 0.88262,4.60857 2.64788,6.37384 1.76525,1.76526 3.88987,2.64789 6.37384,2.64789 h 31.585474 z m 29.48608,-27.06514 -23.81204,27.06514 h 6.01448 l 3.97183,-4.50138 h 31.68003 l 3.97182,4.50138 h 6.01448 l -23.81203,-27.06514 z m 2.00483,4.53923 11.89658,13.50418 h -23.77423 z m 31.50983,-4.53923 v 27.06514 h 45.1086 v -4.50138 H -5.5172858 v -22.56376 z m 50.78262,27.06514 h 4.50143 v -27.06514 h -4.50143 z m 14.67687,-15.79273 h 32.70134 c 0.93304,0 1.73373,-0.32786 2.40202,-0.9835 0.65568,-0.66828 0.9835,-1.46893 0.9835,-2.40202 0,-0.92044 -0.32786,-1.7148 -0.9835,-2.38309 -0.66829,-0.65568 -1.46898,-0.9835 -2.40202,-0.9835 h -32.70134 z m 0,11.29135 h 32.70134 c 0.93304,0 1.73373,-0.33414 2.40202,-1.00243 0.65568,-0.65568 0.9835,-1.45005 0.9835,-2.38309 0,-0.93305 -0.32786,-1.73373 -0.9835,-2.40202 -0.66829,-0.65564 -1.46898,-0.9835 -2.40202,-0.9835 h -32.70134 z m -4.50142,4.50138 v -27.06514 h 37.20276 c 2.18135,0 4.0412,0.77543 5.57947,2.32635 1.55092,1.53827 2.32635,3.3918 2.32635,5.56054 0,2.21921 -0.79436,4.10422 -2.38309,5.65514 1.58873,1.53827 2.38309,3.41701 2.38309,5.63621 0,2.16874 -0.77543,4.02855 -2.32635,5.57947 -1.53827,1.53827 -3.39812,2.30743 -5.57947,2.30743 z m 58.669546,0 c -2.16875,0 -4.02856,-0.76916 -5.57948,-2.30743 -1.53827,-1.55092 -2.30742,-3.41073 -2.30742,-5.57947 v -19.17824 h 4.50138 v 19.17824 c 0,0.93304 0.33414,1.72741 1.00242,2.38309 0.65569,0.66829 1.45005,1.00243 2.3831,1.00243 h 29.31587 c 0.93305,0 1.73373,-0.33414 2.40198,-1.00243 0.65568,-0.65568 0.9835,-1.45005 0.9835,-2.38309 v -19.17824 h 4.52035 v 19.17824 c 0,2.16874 -0.77548,4.02855 -2.3264,5.57947 -1.53827,1.53827 -3.39808,2.30743 -5.57943,2.30743 z m 47.39714,-15.79273 v -6.75211 h 32.70135 c 0.93305,0 1.73373,0.32786 2.40202,0.9835 0.65568,0.66829 0.9835,1.46265 0.9835,2.38309 0,0.93309 -0.32786,1.73374 -0.9835,2.40202 -0.66829,0.65568 -1.46897,0.9835 -2.40202,0.9835 z m 36.29489,3.65028 c 1.29876,-0.66824 2.339,-1.62025 3.12072,-2.85591 0.79436,-1.27351 1.19157,-2.66682 1.19157,-4.17989 0,-2.16874 -0.77544,-4.02227 -2.32636,-5.56054 -1.53827,-1.55092 -3.39812,-2.32635 -5.57947,-2.32635 h -37.20277 v 27.06514 h 4.50142 v -11.27242 h 27.06514 c 2.49657,0 4.62118,0.88263 6.37384,2.64789 1.76526,1.76526 2.64789,3.88988 2.64789,6.37384 v 2.25069 h 4.52031 v -2.25069 c 0,-3.9088 -1.43745,-7.20601 -4.31229,-9.89176 z"
         id="text3-9-5-2-7-5"
         style="-inkscape-font-specification:'Centauri, Normal';fill:#0074a7;fill-opacity:1;stroke-width:1.61378"
         aria-label="EXCALIBUR"
         sodipodi:nodetypes="ccccccccccccccsssssccscsssccccccccccccccccccccccccccccscscscccssscsccccscscssscscsccscssssccssssccscscscccscsccccscsccsc" /><path
         style="-inkscape-font-specification:'Centauri, Normal';fill:#0074a7;fill-opacity:1;stroke-width:2.73205"
         d="m -107.5465,-243.0163 -35.46463,24.36517 -30.02128,-21.67198 -13.52204,-0.45637 36.60047,26.45856 -44.78536,30.22371 9.04373,-2.75791 38.05587,-25.69186 25.74057,18.68529 13.52206,0.45637 -32.60879,-23.61596 42.483134,-28.75295 z"
         id="text6-0-0-6-2"
         aria-label="X"
         sodipodi:nodetypes="ccccccccccccc" /></g></g></svg>
