<?xml version="1.0" encoding="UTF-8" standalone="no"?>
<!-- Created with Inkscape (http://www.inkscape.org/) -->

<svg
   width="485"
   height="130"
   viewBox="0 0 128.32291 34.395834"
   version="1.1"
   id="svg5"
   xml:space="preserve"
   inkscape:version="1.4 (e7c3feb100, 2024-10-09)"
   sodipodi:docname="executive.svg"
   xmlns:inkscape="http://www.inkscape.org/namespaces/inkscape"
   xmlns:sodipodi="http://sodipodi.sourceforge.net/DTD/sodipodi-0.dtd"
   xmlns="http://www.w3.org/2000/svg"
   xmlns:svg="http://www.w3.org/2000/svg"><sodipodi:namedview
     id="namedview7"
     pagecolor="#ffffff"
     bordercolor="#000000"
     borderopacity="0.25"
     inkscape:showpageshadow="2"
     inkscape:pageopacity="0.0"
     inkscape:pagecheckerboard="0"
     inkscape:deskcolor="#d1d1d1"
     inkscape:document-units="px"
     showgrid="false"
     inkscape:zoom="1.5518659"
     inkscape:cx="256.46546"
     inkscape:cy="62.183208"
     inkscape:window-width="1920"
     inkscape:window-height="1008"
     inkscape:window-x="0"
     inkscape:window-y="0"
     inkscape:window-maximized="1"
     inkscape:current-layer="layer1" /><defs
     id="defs2" /><g
     inkscape:label="Capa 1"
     inkscape:groupmode="layer"
     id="layer1"><g
       id="g2"
       transform="matrix(1.4020784,0,0,1.4020784,-386.30852,-393.08718)"
       style="fill:#0074a7;fill-opacity:1"><path
         style="fill:#0074a7;fill-opacity:1;stroke-width:0.35115"
         d="m 286.13634,285.24032 v 1.16306 1.16305 z"
         id="path1-12"
         sodipodi:nodetypes="cccc" /><path
         d="m 305.34718,285.43727 h 7.35505 v 2.45168 h -4.6582 v 4.53561 h 3.70204 v 2.45168 h -3.70204 v 5.27112 h 4.6582 v 2.45168 h -7.35505 z m 12.69974,17.40694 c -1.29122,0 -2.28007,-0.36775 -2.96654,-1.10326 -0.67012,-0.7355 -1.00519,-1.77338 -1.00519,-3.11363 v -9.21833 c 0,-1.34025 0.33507,-2.37813 1.00519,-3.11363 0.68647,-0.73551 1.67532,-1.10326 2.96654,-1.10326 1.29122,0 2.27189,0.36775 2.94202,1.10326 0.68647,0.7355 1.0297,1.77338 1.0297,3.11363 v 1.81425 h -2.54975 v -1.98587 c 0,-1.06239 -0.44947,-1.59359 -1.34842,-1.59359 -0.89895,0 -1.34843,0.5312 -1.34843,1.59359 v 9.58608 c 0,1.04605 0.44948,1.56908 1.34843,1.56908 0.89895,0 1.34842,-0.52303 1.34842,-1.56908 v -2.6233 h 2.54975 v 2.42717 c 0,1.34025 -0.34323,2.37813 -1.0297,3.11363 -0.67013,0.73551 -1.6508,1.10326 -2.94202,1.10326 z m 9.51251,0 c -1.30757,0 -2.30458,-0.36775 -2.99105,-1.10326 -0.68648,-0.75185 -1.02971,-1.82241 -1.02971,-3.2117 v -13.09198 h 2.69685 v 13.28812 c 0,0.5884 0.11441,1.01336 0.34323,1.27487 0.24517,0.26151 0.58841,0.39227 1.02971,0.39227 0.4413,0 0.77637,-0.13076 1.00519,-0.39227 0.24517,-0.26151 0.36775,-0.68647 0.36775,-1.27487 v -13.28812 h 2.59879 v 13.09198 c 0,1.38929 -0.34324,2.45985 -1.02971,3.2117 -0.68647,0.73551 -1.68349,1.10326 -2.99105,1.10326 z m 8.04153,-14.95526 h -2.81944 v -2.45168 h 8.33572 v 2.45168 h -2.81943 v 14.71009 h -2.69685 z m 6.81568,-2.45168 h 2.69685 v 17.16177 h -2.69685 z m 3.99623,0 h 2.72137 l 1.76521,13.31263 h 0.049 l 1.76521,-13.31263 h 2.4762 l -2.59878,17.16177 h -3.57946 z m 10.0764,0 h 7.35505 v 2.45168 h -4.6582 v 4.53561 h 3.70204 v 2.45168 h -3.70204 v 5.27112 h 4.6582 v 2.45168 h -7.35505 z"
         style="font-size:111.232px;line-height:1;font-family:'Bebas Neue';-inkscape-font-specification:'Bebas Neue, Normal';text-align:center;letter-spacing:0px;word-spacing:0px;text-anchor:middle;white-space:pre;fill:#0074a7;fill-opacity:1;stroke-width:0.991853;stroke-linecap:square"
         id="path1-4" /><path
         d="m 278.73027,285.43727 h 7.35504 v 2.45168 h -4.65819 v 4.53561 h 3.70204 v 2.45168 h -3.70204 v 5.27112 h 4.65819 v 2.45168 h -7.35504 z"
         style="font-size:111.232px;line-height:1;font-family:'Bebas Neue';-inkscape-font-specification:'Bebas Neue, Normal';text-align:center;letter-spacing:0px;word-spacing:0px;text-anchor:middle;white-space:pre;fill:#0074a7;fill-opacity:1;stroke-width:0.991853;stroke-linecap:square"
         id="path1-6" /><path
         d="m 287.05655,302.5992 h 5.86405 l 5.67432,-10.18264 -5.67432,-10.00795 -5.86405,-1e-4 5.85165,10.00804 z"
         id="text9"
         style="font-size:113.544px;line-height:1;font-family:BoomBox;-inkscape-font-specification:'BoomBox, Normal';text-align:center;letter-spacing:0px;word-spacing:0px;text-anchor:middle;white-space:pre;fill:#0074a7;fill-opacity:1;stroke-width:1.01247;stroke-linecap:square"
         aria-label="&gt;"
         sodipodi:nodetypes="ccccccc" /><path
         style="fill:#0074a7;fill-opacity:1;stroke-width:0.991853;stroke-linecap:square"
         d="m 299.76284,294.4681 -2.76683,4.38787 1.82832,3.72603 h 5.55161 z"
         id="path10"
         sodipodi:nodetypes="ccccc" /><path
         d="m 299.76284,290.52243 -2.76683,-4.38787 1.82832,-3.72603 h 5.55161 z"
         style="fill:#0074a7;fill-opacity:1;stroke-width:0.991853;stroke-linecap:square"
         id="path1-1" /></g></g></svg>
