<?xml version="1.0" encoding="UTF-8" standalone="no"?>
<!-- Created with Inkscape (http://www.inkscape.org/) -->

<svg
   width="485"
   height="130"
   viewBox="0 0 128.32291 34.395834"
   version="1.1"
   id="svg5"
   xml:space="preserve"
   inkscape:version="1.2.2 (b0a8486541, 2022-12-01)"
   sodipodi:docname="executive.svg"
   xmlns:inkscape="http://www.inkscape.org/namespaces/inkscape"
   xmlns:sodipodi="http://sodipodi.sourceforge.net/DTD/sodipodi-0.dtd"
   xmlns="http://www.w3.org/2000/svg"
   xmlns:svg="http://www.w3.org/2000/svg"><sodipodi:namedview
     id="namedview7"
     pagecolor="#ffffff"
     bordercolor="#000000"
     borderopacity="0.25"
     inkscape:showpageshadow="2"
     inkscape:pageopacity="0.0"
     inkscape:pagecheckerboard="0"
     inkscape:deskcolor="#d1d1d1"
     inkscape:document-units="px"
     showgrid="false"
     inkscape:zoom="1.0973349"
     inkscape:cx="131.68268"
     inkscape:cy="121.65839"
     inkscape:window-width="1440"
     inkscape:window-height="815"
     inkscape:window-x="0"
     inkscape:window-y="0"
     inkscape:window-maximized="1"
     inkscape:current-layer="layer1" /><defs
     id="defs2" /><g
     inkscape:label="Capa 1"
     inkscape:groupmode="layer"
     id="layer1"><path
       style="fill:#0074a7;fill-opacity:1;stroke-width:0.422581"
       d="M 4.154949,19.102875 V 7.6931867 h 4.859682 4.859681 V 9.3835118 11.073836 H 11.127536 8.380759 v 2.746776 2.746777 h 2.112905 2.112906 v 1.901615 1.901615 H 10.493664 8.380759 v 3.380648 3.380648 h 2.746777 2.746776 v 1.690324 1.690325 H 9.014631 4.154949 Z m 10.141945,11.150477 v -0.259206 l 4.037221,-6.638323 4.037222,-6.638318 -3.840211,-6.308128 -3.840212,-6.3081303 3.885272,-0.1223993 3.88527,-0.1223993 0.401493,0.4014928 0.401493,0.4014929 3.349162,5.8483332 3.349162,5.848332 -0.18637,0.73743 -0.18637,0.73743 -3.726841,6.340802 -3.72684,6.340803 h -3.919726 -3.919725 z m 14.764562,-2.110032 -1.355542,-2.369238 0.679077,-1.424043 0.679079,-1.424043 1.073333,-1.700267 1.073334,-1.700273 h 0.329214 0.329213 l 2.581968,4.542747 2.581966,4.542746 0.479035,0.950807 0.479034,0.950808 h -3.787085 -3.787083 z m 9.745137,-9.027034 V 7.6931867 h 4.859681 4.859682 V 9.3835118 11.073836 H 45.99047 43.454984 v 2.701565 2.701565 l 0.668434,0.256502 0.668433,0.256501 h 1.444471 1.444472 v 1.690326 1.690324 h -2.112905 -2.112905 v 3.380648 3.380648 h 2.772286 2.772286 l -0.131153,1.58468 -0.131156,1.584678 -4.965327,0.119056 -4.965327,0.119056 z M 52.921336,29.710906 51.611871,28.91241 50.914076,27.168448 50.21628,25.424489 v -6.555028 -6.555027 l 0.57941,-1.359817 0.57941,-1.3598157 1.143178,-1.0547809 1.143178,-1.0547799 2.859445,-0.00168 2.859446,-0.00168 1.08335,0.5785149 1.083345,0.5785147 0.651295,1.3231011 0.65129,1.3230998 0.202802,2.429841 0.202796,2.429842 h -2.29366 -2.293664 l -0.0065,-2.007261 -0.0065,-2.007259 -0.356316,-0.562065 -0.356316,-0.562066 -1.197472,0.139485 -1.197468,0.139483 -0.371398,1.442686 -0.371394,1.442687 0.135683,6.074359 0.135686,6.074359 0.633872,0.399879 0.633871,0.399876 0.498042,0.0065 0.498041,0.0065 0.664056,-0.664056 0.664057,-0.664057 v -2.025279 -2.025283 l 1.945347,-0.26664 1.945352,-0.266641 0.347725,0.214908 0.347724,0.214904 -0.214286,2.424136 -0.214287,2.424136 -0.445662,1.17642 -0.445666,1.176423 -1.056241,0.830836 -1.056242,0.830841 -2.795432,-0.0017 -2.795433,-0.0017 -1.309464,-0.798496 z M 67.759174,29.59645 66.594523,28.680336 66.01186,27.285828 65.429197,25.891319 V 16.792252 7.6931867 h 2.047963 2.047967 l 0.276229,5.1373193 0.276232,5.137318 v 4.168524 4.168526 l 1.072063,0.48846 1.072062,0.488467 0.723908,-0.723062 0.723906,-0.723061 0.135707,-9.071247 0.135708,-9.0712443 h 2.32928 2.329279 l -0.142418,9.4024283 -0.142414,9.402428 -0.745045,1.366235 -0.745043,1.366238 -1.239608,0.641022 -1.239603,0.641026 H 71.634597 68.923823 Z M 83.177601,20.793199 V 11.073836 H 81.275986 79.374371 V 9.3835118 7.6931867 h 6.127425 6.127425 v 1.6903251 1.6903242 h -1.901615 -1.901614 v 9.719363 9.719365 h -2.324196 -2.324195 z m 9.71936,-1.690324 V 7.6931867 h 2.3242 2.32419 V 19.102875 30.512564 h -2.32419 -2.3242 z m 10.780859,10.458881 -0.22236,-0.950807 -1.91902,-9.508074 -1.919029,-9.5080737 -0.24268,-0.9746881 -0.24266,-0.9746878 2.231959,0.1295254 2.23195,0.1295254 1.31066,6.7438168 1.31066,6.743813 0.53764,-3.151874 0.53765,-3.151876 0.67363,-3.697584 0.67364,-3.6975853 h 2.21518 2.21519 l -0.9592,4.5427473 -0.95921,4.542746 -1.37035,6.866941 -1.37035,6.866943 h -2.25548 -2.25546 z m 11.05251,0.669086 -0.28172,-0.281718 V 18.821154 7.6931867 h 4.85967 4.85969 v 1.6903251 1.6903242 h -2.3242 -2.3242 v 2.746776 2.746777 l 1.1621,0.0058 1.1621,0.0057 0.97303,0.260618 0.97304,0.260618 -0.12787,1.529581 -0.12787,1.529585 -2.00726,0.128798 -2.00727,0.1288 v 3.357495 3.357494 h 2.3242 2.3242 v 1.690324 1.690324 h -4.57796 -4.57796 z M 29.546341,11.036714 27.819486,8.0415242 V 7.6079561 7.1743867 l 0.922977,-1.6422141 0.922976,-1.6422154 h 3.97192 3.971921 l -0.14086,0.3572329 -0.140861,0.357234 -2.7132,4.713738 -2.713201,4.7137409 h -0.313981 -0.313982 z"
       id="path312" /></g></svg>
