<?xml version="1.0" encoding="UTF-8" standalone="no"?>
<!-- Created with Inkscape (http://www.inkscape.org/) -->

<svg
   width="485"
   height="130"
   viewBox="0 0 128.32291 34.395834"
   version="1.1"
   id="svg5"
   xml:space="preserve"
   inkscape:version="1.2.2 (b0a8486541, 2022-12-01)"
   sodipodi:docname="kymera.svg"
   xmlns:inkscape="http://www.inkscape.org/namespaces/inkscape"
   xmlns:sodipodi="http://sodipodi.sourceforge.net/DTD/sodipodi-0.dtd"
   xmlns="http://www.w3.org/2000/svg"
   xmlns:svg="http://www.w3.org/2000/svg"><sodipodi:namedview
     id="namedview7"
     pagecolor="#ffffff"
     bordercolor="#000000"
     borderopacity="0.25"
     inkscape:showpageshadow="2"
     inkscape:pageopacity="0.0"
     inkscape:pagecheckerboard="0"
     inkscape:deskcolor="#d1d1d1"
     inkscape:document-units="px"
     showgrid="false"
     inkscape:zoom="1.0973349"
     inkscape:cx="131.68268"
     inkscape:cy="120.7471"
     inkscape:window-width="1920"
     inkscape:window-height="1008"
     inkscape:window-x="0"
     inkscape:window-y="0"
     inkscape:window-maximized="1"
     inkscape:current-layer="layer1" /><defs
     id="defs2" /><g
     inkscape:label="Capa 1"
     inkscape:groupmode="layer"
     id="layer1"><path
       style="fill:#0074a7;stroke-width:0.260417;fill-opacity:1"
       d="M 4.9166661,24.629514 H 2.7031243 V 17.207636 9.7857579 H 4.9166661 7.130208 v 2.7343781 2.734378 l 2.0182294,-0.0066 2.0182296,-0.0066 2.306897,-2.727859 2.306897,-2.72786 h 2.836333 2.836333 l -0.0075,0.585938 -0.0075,0.585937 -1.968874,2.211541 -1.968874,2.211548 0.442666,0.262411 0.442667,0.262419 0.970584,0.687121 0.970584,0.687121 0.586867,1.248507 0.586867,1.248506 0.144759,2.426354 0.144757,2.426353 H 19.440306 17.090541 L 16.970868,23.18617 16.851196,21.743077 16.32758,21.03773 l -0.523617,-0.705347 -0.625938,-0.321681 -0.625938,-0.32168 -3.710937,-0.0037 -3.7109383,-0.0037 v 2.473959 2.47396 z m 25.0651079,-0.0015 -7.226564,0.0015 V 22.4285 20.227479 l 6.628061,-0.07763 6.628058,-0.07763 0.325068,-0.325526 0.325065,-0.32552 H 29.708336 22.75521 V 14.603468 9.7857579 h 2.34375 2.343751 v 2.7343781 2.734378 h 5.078125 5.078126 V 12.520136 9.7857579 h 2.34375 2.34375 v 4.9015311 4.901524 l -0.409838,1.202812 -0.409839,1.202806 -1.125395,1.037354 -1.125396,1.037355 -1.003829,0.278733 -1.003828,0.278733 -7.226563,0.0015 z m 15.690106,0.0015 H 43.32813 V 17.1979 9.7662919 l 8.940238,0.074838 8.940235,0.074838 1.27424,0.7881351 1.274232,0.788135 0.788135,1.273804 0.788135,1.273804 0.08429,5.294831 0.0843,5.294838 H 63.138997 60.776049 V 20.714898 16.800281 L 60.394796,15.887813 60.013543,14.975353 59.101077,14.5941 58.188611,14.212848 H 53.10212 48.01563 v 5.208329 5.208337 z m 8.593751,0 h -2.34375 v -4.947918 -4.947919 h 2.34375 2.34375 v 4.947919 4.947918 z m 24.269884,0 h -6.980114 l -1.360498,-0.677967 -1.360497,-0.67796 -0.665713,-0.872798 -0.665714,-0.872791 -0.368674,-1.22501 -0.368666,-1.225002 v -4.64611 -4.6461181 h 9.374998 9.375001 v 2.2135411 2.213549 h -7.03125 -7.031249 v 0.520829 0.520837 h 6.90104 6.901041 v 2.213541 2.213541 l -6.315104,0.01831 -6.315102,0.01831 0.52083,0.223811 0.520834,0.223805 5.924477,0.01831 5.924483,0.01831 v 2.213541 2.213548 z m 10.105121,0 h -2.34375 V 17.207636 9.7857579 h 9.923261 9.923263 l -0.0955,3.0598971 -0.0955,3.059897 -0.64808,1.157842 -0.64809,1.157842 -1.27943,0.657003 -1.27945,0.656996 2.0607,1.901457 2.06069,1.901457 0.14483,-4.49755 0.14483,-4.49755 0.32877,-0.780088 0.32876,-0.780096 0.6678,-0.875537 0.6678,-0.875529 1.33256,-0.620477 1.33257,-0.6204706 7.22656,-0.00295 7.22656,-0.00221 v 7.4218706 7.421878 h -2.34375 -2.34375 v -2.604168 -2.604169 h -4.94791 -4.94792 v 2.604169 2.604168 h -5.10127 -5.10127 l -2.646135,-2.471951 -2.646127,-2.471944 -2.14844,-0.0022 -2.148433,-0.0022 v -2.213578 -2.213548 l 3.841144,-0.0015 3.841147,-0.0015 0.967154,-0.268605 0.96715,-0.268605 0.15499,-0.250777 0.15499,-0.250763 h -5.093477 -5.093497 v 5.208337 5.208337 z m 27.669274,-9.385431 4.6224,0.01041 v -0.544719 -0.544717 l -3.84115,0.09227 -3.84114,0.09227 -0.78125,0.442021 -0.78126,0.442013 4.6224,0.01041 z"
       id="path233" /></g></svg>
