<?xml version="1.0" encoding="UTF-8" standalone="no"?>
<!-- Created with Inkscape (http://www.inkscape.org/) -->

<svg
   width="485"
   height="130"
   viewBox="0 0 128.32291 34.395834"
   version="1.1"
   id="svg5"
   xml:space="preserve"
   inkscape:version="1.4 (e7c3feb100, 2024-10-09)"
   sodipodi:docname="kymera.svg"
   xmlns:inkscape="http://www.inkscape.org/namespaces/inkscape"
   xmlns:sodipodi="http://sodipodi.sourceforge.net/DTD/sodipodi-0.dtd"
   xmlns="http://www.w3.org/2000/svg"
   xmlns:svg="http://www.w3.org/2000/svg"><sodipodi:namedview
     id="namedview7"
     pagecolor="#ffffff"
     bordercolor="#000000"
     borderopacity="0.25"
     inkscape:showpageshadow="2"
     inkscape:pageopacity="0.0"
     inkscape:pagecheckerboard="0"
     inkscape:deskcolor="#d1d1d1"
     inkscape:document-units="px"
     showgrid="false"
     inkscape:zoom="1.0973349"
     inkscape:cx="349.93875"
     inkscape:cy="120.74709"
     inkscape:window-width="1920"
     inkscape:window-height="1008"
     inkscape:window-x="0"
     inkscape:window-y="0"
     inkscape:window-maximized="1"
     inkscape:current-layer="layer1" /><defs
     id="defs2" /><g
     inkscape:label="Capa 1"
     inkscape:groupmode="layer"
     id="layer1"><path
       style="font-size:12.1685px;line-height:0.9;font-family:Xirod;-inkscape-font-specification:'Xirod, Normal';letter-spacing:0px;word-spacing:0px;white-space:pre;fill:#0074a7;fill-opacity:1;fill-rule:evenodd;stroke-width:1.47856;stroke-linecap:round;stroke-linejoin:round;paint-order:fill markers stroke"
       d="M 6.1477029,24.194754 H 2.7492372 V 10.201079 h 3.3984657 v 5.43754 H 11.4653 l 4.757846,-5.43754 h 4.258079 l -4.997746,5.577475 q 2.478885,0.479781 3.838265,2.198997 1.37938,1.719227 1.37938,4.597932 v 1.619271 h -3.41845 v -1.699245 q 0,-3.718318 -3.65835,-3.718318 H 6.1477029 Z M 41.55169,10.201079 v 7.036816 q 0,1.639266 -0.459781,2.938672 -0.459781,1.279416 -1.359429,2.179021 -0.879544,0.899586 -2.178945,1.379366 -1.299449,0.4598 -2.97869,0.4598 H 23.160016 v -3.318502 h 11.33484 q 1.559329,0 2.358932,-0.51976 0.819659,-0.53976 1.099501,-1.55931 H 23.160016 v -8.596103 h 3.398458 v 5.53749 h 11.594762 v -5.53749 z m 10.955084,5.01773 h 3.418415 v 8.975945 h -3.418415 z m -8.576096,-5.01773 H 57.96426 q 1.559377,0 2.838769,0.479776 1.299402,0.459799 2.218963,1.319401 0.919562,0.83963 1.419362,2.019091 0.51976,1.179462 0.51976,2.598832 v 7.576575 H 61.562661 V 17.19791 q 0,-3.698328 -3.598401,-3.698328 H 47.309074 v 10.695172 h -3.378396 z m 41.26127,3.298503 h -14.35349 v 2.139037 h 13.993707 v 3.138572 H 71.018397 q 0.319812,1.019551 1.119462,1.559306 0.799603,0.539755 2.358979,0.539755 h 10.69511 v 3.318502 H 74.436811 q -1.619214,0 -2.918663,-0.479794 -1.299401,-0.499771 -2.21901,-1.399361 -0.899553,-0.899586 -1.379391,-2.179021 -0.479742,-1.299402 -0.479742,-2.898683 v -7.036816 h 17.751943 z m 7.016862,2.139037 h 7.95644 q 1.03947,0 1.61921,-0.53976 0.57974,-0.559751 0.73967,-1.599277 H 90.629476 V 24.194754 H 87.231065 V 10.201079 h 18.591565 v 2.678792 q 0,5.2976 -5.15768,5.837355 l 5.31761,5.477528 h -4.11811 L 96.466888,18.777191 H 92.20881 Z m 29.94645,-2.139037 h -6.15723 q -1.53932,0 -2.47889,0.159849 -0.91961,0.160015 -1.45938,0.459781 -0.51971,0.279875 -0.75963,0.69969 -0.21991,0.399822 -0.31982,0.879598 h 11.17495 z m 3.41842,10.695172 h -3.41842 v -5.417563 h -11.39485 v 5.417563 h -3.39845 v -7.016843 q 0,-1.639242 0.45977,-2.938669 0.47975,-1.299411 1.35938,-2.198997 0.89956,-0.899591 2.19901,-1.35939 1.29939,-0.479776 2.95863,-0.479776 h 11.23493 z"
       id="text4"
       aria-label="KYMERA" /></g></svg>
