<?xml version="1.0" encoding="UTF-8" standalone="no"?>
<!-- Created with Inkscape (http://www.inkscape.org/) -->

<svg
   width="485"
   height="130"
   viewBox="0 0 128.32291 34.395834"
   version="1.1"
   id="svg5"
   xml:space="preserve"
   inkscape:version="1.4 (e7c3feb100, 2024-10-09)"
   sodipodi:docname="nas.svg"
   xmlns:inkscape="http://www.inkscape.org/namespaces/inkscape"
   xmlns:sodipodi="http://sodipodi.sourceforge.net/DTD/sodipodi-0.dtd"
   xmlns="http://www.w3.org/2000/svg"
   xmlns:svg="http://www.w3.org/2000/svg"><sodipodi:namedview
     id="namedview7"
     pagecolor="#ffffff"
     bordercolor="#000000"
     borderopacity="0.25"
     inkscape:showpageshadow="2"
     inkscape:pageopacity="0.0"
     inkscape:pagecheckerboard="0"
     inkscape:deskcolor="#d1d1d1"
     inkscape:document-units="px"
     showgrid="false"
     inkscape:zoom="1.0973349"
     inkscape:cx="318.04329"
     inkscape:cy="45.109292"
     inkscape:window-width="1920"
     inkscape:window-height="1008"
     inkscape:window-x="0"
     inkscape:window-y="0"
     inkscape:window-maximized="1"
     inkscape:current-layer="layer1" /><defs
     id="defs2" /><g
     inkscape:label="Capa 1"
     inkscape:groupmode="layer"
     id="layer1"><g
       id="g3"
       transform="matrix(0.7575571,0,0,0.7575571,-157.06723,-198.17188)"
       style="fill:#0074a7;fill-opacity:1"><path
         d="m 268.50891,304.39262 h -11.10252 c -0.95128,0 -1.81862,-0.014 -2.60202,-0.042 -0.78341,-0.021 -1.48637,-0.10142 -2.1089,-0.24131 -0.62253,-0.1329 -1.16461,-0.34624 -1.62626,-0.64002 -0.46165,-0.29377 -0.84636,-0.71345 -1.15412,-1.25904 -0.30078,-0.54558 -0.52461,-1.24156 -0.6715,-2.08791 -0.15388,-0.83936 -0.23082,-1.87458 -0.23082,-3.10564 v -1.67678 c 0,-1.23107 0.0769,-2.26978 0.23082,-3.11613 0.14689,-0.83937 0.37072,-1.53184 0.6715,-2.07742 0.30776,-0.54559 0.69247,-0.96877 1.15412,-1.26954 0.46165,-0.29378 1.00373,-0.51061 1.62626,-0.65051 0.62253,-0.13289 1.32549,-0.20984 2.1089,-0.23082 0.7834,-0.021 1.65074,-0.0315 2.60202,-0.0315 h 19.40607 v 2.01447 h -19.40607 c -1.00723,0 -1.87457,0.007 -2.60202,0.021 -0.72045,0.021 -1.32899,0.0804 -1.82561,0.17836 -0.49662,0.0979 -0.89532,0.25181 -1.19609,0.46165 -0.30078,0.21683 -0.5316,0.5246 -0.69248,0.9233 -0.16088,0.39869 -0.26929,0.90231 -0.32525,1.51085 -0.049,0.61553 -0.0734,1.37096 -0.0734,2.26628 v 1.67677 c 0,0.88833 0.0245,1.64026 0.0734,2.25579 0.056,0.61553 0.16437,1.11915 0.32525,1.51085 0.16088,0.3987 0.3917,0.70647 0.69248,0.9233 0.30077,0.21684 0.69947,0.37422 1.19609,0.47214 0.49662,0.10492 1.10516,0.16438 1.82561,0.17837 0.72745,0.014 1.59479,0.021 2.60202,0.021 l 11.10252,-0.0105 z"
         style="-inkscape-font-specification:'Michroma, Normal';stroke-width:0.895319;fill:#0074a7;fill-opacity:1"
         id="path1-4-0"
         sodipodi:nodetypes="csccsccssccccssccscscscssccsccccc"
         inkscape:connector-curvature="0" /><path
         d="m 316.16175,304.35669 v -16.39254 h 16.11575 v 1.67873 h -14.10128 v 5.37191 h 11.76908 v 1.67873 h -11.76908 v 5.98444 h 16.86913 v 1.67873 z"
         style="-inkscape-font-specification:'Michroma, Normal';stroke-width:0.895319;fill:#0074a7;fill-opacity:1"
         id="path1-2-7"
         sodipodi:nodetypes="ccccccccccccc"
         inkscape:connector-curvature="0" /><path
         d="m 294.00258,304.3566 v -16.39254 h 13.44028 c 1.00724,0 1.81862,0.0839 2.43415,0.25181 0.61553,0.16088 1.08768,0.40219 1.41643,0.72395 0.33574,0.31476 0.55957,0.70996 0.67148,1.1856 0.11192,0.47564 0.16788,1.02122 0.16788,1.63675 0,0.44766 -0.0385,0.84286 -0.11542,1.1856 -0.0769,0.34274 -0.17836,0.64002 -0.30426,0.89182 -0.12591,0.25181 -0.2693,0.46515 -0.43018,0.64002 -0.16087,0.16787 -0.32525,0.30776 -0.49312,0.41968 -0.3917,0.2658 -0.83936,0.41618 -1.34298,0.45116 0.62952,0.035 1.1891,0.18885 1.67872,0.46165 0.20984,0.11891 0.41269,0.26929 0.60854,0.45115 0.20285,0.17487 0.38121,0.3952 0.53509,0.661 0.16088,0.25881 0.29028,0.56657 0.38821,0.9233 0.0979,0.34973 0.14689,0.75542 0.14689,1.21707 0,0.55958 -0.028,1.35047 -0.0839,1.81912 -0.049,0.46164 -0.15388,0.87783 -0.31476,1.24855 -0.16088,0.37072 -0.3917,0.69597 -0.69247,0.97576 -0.30078,0.27978 -0.70297,0.5141 -1.20659,0.70296 -0.49662,0.18186 -1.10865,0.31826 -1.8361,0.40919 -0.72045,0.0909 -1.5843,0.1364 -2.59153,0.1364 z m 11.40483,-1.67873 c 0.7834,0 1.46189,-0.0105 2.03545,-0.0315 0.57356,-0.028 1.05969,-0.0804 1.45839,-0.15738 0.3987,-0.0839 0.72046,-0.19935 0.96527,-0.34624 0.24481,-0.15388 0.43367,-0.35323 0.56657,-0.59805 0.13989,-0.2518 0.23432,-0.55607 0.28328,-0.9128 0.049,-0.35673 0.0735,-1.06369 0.0735,-1.56731 0,-0.3917 -0.0245,-0.73094 -0.0735,-1.01772 -0.049,-0.29378 -0.14339,-0.53859 -0.28328,-0.73444 -0.1329,-0.20285 -0.32176,-0.36373 -0.56657,-0.48264 -0.24481,-0.1259 -0.56657,-0.22383 -0.96527,-0.29377 -0.3987,-0.07 -0.88483,-0.11542 -1.45839,-0.1364 -0.57356,-0.028 -1.25205,-0.042 -2.03545,-0.042 h -9.39037 v 6.32019 z m 0,-7.99891 c 0.68548,0 1.27653,-0.014 1.77315,-0.042 0.49662,-0.028 0.9198,-0.0804 1.26954,-0.15738 0.34973,-0.0769 0.63301,-0.18186 0.84985,-0.31476 0.21683,-0.1399 0.38471,-0.31826 0.50362,-0.5351 0.1259,-0.21683 0.20984,-0.47563 0.25181,-0.77641 0.042,-0.30776 0.063,-0.67148 0.063,-1.09117 0,-0.44766 -0.049,-0.81138 -0.14689,-1.09117 -0.0979,-0.27978 -0.27279,-0.49312 -0.5246,-0.64001 -0.25181,-0.15388 -0.59455,-0.25531 -1.02822,-0.30427 -0.42668,-0.056 -0.97576,-0.0839 -1.64725,-0.0839 h -10.75433 v 5.03617 z"
         style="-inkscape-font-specification:'Michroma, Normal';stroke-width:0.895319;fill:#0074a7;fill-opacity:1"
         id="path1-7-4"
         inkscape:connector-curvature="0" /><path
         d="m 290.64507,287.96406 v 8.05788 c 0,0.95127 -0.014,1.81861 -0.042,2.60202 -0.021,0.7834 -0.10142,1.48637 -0.24131,2.1089 -0.1329,0.62252 -0.34624,1.16461 -0.64002,1.62626 -0.29377,0.46165 -0.71346,0.84636 -1.25904,1.15412 -0.54559,0.30077 -1.24156,0.52461 -2.08791,0.6715 -0.83937,0.15388 -1.87458,0.23082 -3.10565,0.23082 h -4.72141 c -1.23106,0 -2.26977,-0.0769 -3.11612,-0.23082 -0.83937,-0.14689 -1.53184,-0.37073 -2.07742,-0.6715 -0.54559,-0.30776 -0.96877,-0.69247 -1.26954,-1.15412 -0.29378,-0.46165 -0.51061,-1.00374 -0.65051,-1.62626 -0.13289,-0.62253 -0.20984,-1.3255 -0.23082,-2.1089 -0.021,-0.78341 -0.0315,-1.65075 -0.0315,-2.60202 v -4.0445 h 2.01447 v 4.0445 c 0,1.00723 0.007,1.87457 0.021,2.60202 0.021,0.72045 0.0804,1.32899 0.17836,1.82561 0.0979,0.49662 0.25181,0.89532 0.46165,1.19609 0.21684,0.30078 0.5246,0.5316 0.9233,0.69248 0.3987,0.16087 0.90231,0.26929 1.51085,0.32525 0.61553,0.049 1.37095,0.0734 2.26627,0.0734 h 4.72141 c 0.88833,0 1.64026,-0.0245 2.25579,-0.0734 0.61553,-0.056 1.11915,-0.16438 1.51085,-0.32525 0.3987,-0.16088 0.70647,-0.3917 0.9233,-0.69248 0.21684,-0.30077 0.37422,-0.69947 0.47214,-1.19609 0.10492,-0.49662 0.16438,-1.10516 0.17837,-1.82561 0.014,-0.72745 0.021,-1.59479 0.021,-2.60202 l -0.0105,-8.05788 z"
         style="-inkscape-font-specification:'Michroma, Normal';stroke-width:0.895319;fill:#0074a7;fill-opacity:1"
         id="path1-77-8"
         sodipodi:nodetypes="csccsccssccccssccscscscssccsccccc"
         inkscape:connector-curvature="0" /><path
         d="m 250.98324,285.52575 h -1.97047 v -21.02264 h 3.45858 l 14.45009,13.79326 v -13.79326 h 1.97047 v 15.76373 h -2.62729 l -15.28138,-14.12167 z m 37.28492,-8.87143 h -12.47962 l -1.97047,3.61252 h -2.29888 l 9.19552,-15.76373 h 2.62728 l 9.19551,15.76373 h -2.29888 z m -0.98524,-1.64206 -5.25457,-9.1955 -5.25458,9.1955 z m 17.8163,-3.61251 c 1.08102,0 2.0081,0.0445 2.78123,0.13341 0.77314,0.0889 1.42312,0.22236 1.94994,0.40025 0.53367,0.17105 0.95787,0.38657 1.27259,0.64656 0.31473,0.25999 0.55762,0.55761 0.72867,0.89287 0.17104,0.32841 0.28051,0.69787 0.32841,1.10838 0.0547,0.41052 0.0821,0.85524 0.0821,1.33417 0,0.47893 -0.0445,0.9305 -0.13342,1.3547 -0.0821,0.41735 -0.23262,0.8005 -0.45156,1.14944 -0.21894,0.34893 -0.51656,0.66024 -0.89287,0.93392 -0.3763,0.27367 -0.85524,0.5063 -1.4368,0.69787 -0.58156,0.19157 -1.28285,0.33525 -2.10388,0.43104 -0.81418,0.10263 -1.76863,0.15394 -2.86333,0.15394 h -9.96209 v -1.68311 h 9.96209 c 1.14943,0 2.10388,-0.0547 2.86333,-0.1642 0.75945,-0.10947 1.36496,-0.28394 1.81652,-0.52341 0.45157,-0.23946 0.76972,-0.55077 0.95445,-0.93391 0.18473,-0.38999 0.27709,-0.86208 0.27709,-1.41628 0,-0.55419 -0.065,-1.01602 -0.19499,-1.38548 -0.12315,-0.36946 -0.37288,-0.66367 -0.74919,-0.88261 -0.36946,-0.21894 -0.89286,-0.37288 -1.57021,-0.46182 -0.67735,-0.0958 -1.56338,-0.14368 -2.65808,-0.14368 h -2.70939 c -1.20417,0 -2.2373,-0.0445 -3.09938,-0.13342 -0.85524,-0.089 -1.57364,-0.21552 -2.1552,-0.37972 -0.58156,-0.17105 -1.04681,-0.37973 -1.39574,-0.62604 -0.34894,-0.25315 -0.61577,-0.54051 -0.8005,-0.86207 -0.17789,-0.32157 -0.29421,-0.67735 -0.34894,-1.06734 -0.0547,-0.39683 -0.0821,-0.82445 -0.0821,-1.28286 0,-0.47893 0.0411,-0.92365 0.12316,-1.33417 0.0889,-0.41051 0.24973,-0.77998 0.48235,-1.10839 0.23263,-0.33525 0.55077,-0.63287 0.95445,-0.89286 0.40367,-0.25999 0.92023,-0.47551 1.54969,-0.64656 0.6363,-0.17789 1.39917,-0.31131 2.28861,-0.40025 0.88945,-0.0889 1.93626,-0.13342 3.14043,-0.13342 h 9.16688 v 1.64206 h -9.16688 c -1.31364,0 -2.39466,0.0479 -3.24306,0.14368 -0.84839,0.0889 -1.5189,0.24288 -2.01151,0.46182 -0.49262,0.21895 -0.83472,0.51315 -1.02629,0.88261 -0.19157,0.36946 -0.28736,0.83129 -0.28736,1.38548 0,0.3421 0.024,0.64656 0.0718,0.9134 0.0479,0.26683 0.14368,0.50288 0.28736,0.70813 0.15052,0.19842 0.3592,0.36604 0.62603,0.50288 0.26684,0.13684 0.6192,0.24973 1.05708,0.33867 0.43788,0.089 0.97155,0.15395 1.601,0.195 0.6363,0.0342 1.39233,0.0513 2.26809,0.0513 z"
         id="text7-8"
         style="-inkscape-font-specification:'Michroma, Normal';stroke-width:0.219273;fill:#0074a7;fill-opacity:1"
         aria-label="NAS"
         sodipodi:nodetypes="ccccccccccccccccccccccccsscsccscssscsccssscscccsscccccsccscssccscsssscsscss"
         inkscape:connector-curvature="0" /></g></g></svg>
