<?xml version="1.0" encoding="UTF-8" standalone="no"?>
<!-- Created with Inkscape (http://www.inkscape.org/) -->

<svg
   width="485"
   height="130"
   viewBox="0 0 128.32291 34.395834"
   version="1.1"
   id="svg5"
   xml:space="preserve"
   inkscape:version="1.4 (e7c3feb100, 2024-10-09)"
   sodipodi:docname="one.svg"
   xmlns:inkscape="http://www.inkscape.org/namespaces/inkscape"
   xmlns:sodipodi="http://sodipodi.sourceforge.net/DTD/sodipodi-0.dtd"
   xmlns="http://www.w3.org/2000/svg"
   xmlns:svg="http://www.w3.org/2000/svg"><sodipodi:namedview
     id="namedview7"
     pagecolor="#ffffff"
     bordercolor="#000000"
     borderopacity="0.25"
     inkscape:showpageshadow="2"
     inkscape:pageopacity="0.0"
     inkscape:pagecheckerboard="0"
     inkscape:deskcolor="#d1d1d1"
     inkscape:document-units="px"
     showgrid="false"
     inkscape:zoom="1.0973349"
     inkscape:cx="318.04329"
     inkscape:cy="45.109292"
     inkscape:window-width="1920"
     inkscape:window-height="1008"
     inkscape:window-x="0"
     inkscape:window-y="0"
     inkscape:window-maximized="1"
     inkscape:current-layer="layer1" /><defs
     id="defs2" /><g
     inkscape:label="Capa 1"
     inkscape:groupmode="layer"
     id="layer1"><path
       d="m 42.596205,1.6025715 q 6.423272,0 10.957341,4.5529729 4.553019,4.5340796 4.553019,10.9573586 0,6.423281 -4.553019,10.976253 -4.534069,4.534079 -10.957341,4.534079 -6.423272,0 -10.976244,-4.534079 -4.534021,-4.552972 -4.534021,-10.976253 0,-6.423279 4.534021,-10.9573586 4.552972,-4.5529729 10.976244,-4.5529729 z m 0,1.7380628 q -5.705416,0 -9.74828,4.0428835 -4.023962,4.0240042 -4.023962,9.7293852 0,5.705383 4.023962,9.748271 4.042864,4.042893 9.74828,4.042893 5.705417,0 9.729378,-4.042893 4.042865,-4.042888 4.042865,-9.748271 0,-5.705381 -4.042865,-9.7293852 Q 48.301622,3.3406343 42.596205,3.3406343 Z M 65.002091,17.849695 V 32.264288 H 63.301875 V 13.712344 h 1.700216 v 1.190196 q 2.323745,-2.304824 5.403151,-2.304824 3.287155,0 5.346442,2.05923 2.059239,2.059227 2.115902,5.195297 V 32.264288 H 76.167322 V 20.003375 q 0,-2.361494 -1.719168,-4.023994 -1.700311,-1.681387 -4.042912,-1.681387 -2.3426,0 -4.042864,1.643603 -0.925698,0.925708 -1.360287,1.908098 z M 87.068,28.78816 q 2.399263,2.191469 5.705369,2.191469 3.551659,0 6.064343,-2.512637 0.321126,-0.321159 0.604528,-0.661221 l 1.79473,0.642332 q -0.49115,0.68011 -1.11463,1.303549 -3.041599,3.041609 -7.348971,3.041609 -4.288515,0 -7.330114,-3.041609 -3.041601,-3.04161 -3.041601,-7.348985 0,-4.288486 3.041601,-7.3301 3.041599,-3.041612 7.330114,-3.041612 3.68394,0 6.442176,2.210362 0.453351,0.377846 0.906795,0.83125 0.17004,0.170026 0.32121,0.340053 l -1.284712,1.284659 z M 97.912012,15.544868 q -2.210416,-1.700281 -5.138643,-1.700281 -3.532805,0 -6.045441,2.512634 -2.512636,2.493743 -2.512636,6.045446 0,2.928256 1.700311,5.138617 z"
       id="text1"
       style="-inkscape-font-specification:'Caviar Dreams, Normal';stroke-width:0.29018;fill:#0074a7;fill-opacity:1"
       aria-label="One" /></g></svg>
