<?xml version="1.0" encoding="UTF-8" standalone="no"?>
<!-- Created with Inkscape (http://www.inkscape.org/) -->

<svg
   width="485"
   height="130"
   viewBox="0 0 128.32291 34.395834"
   version="1.1"
   id="svg5"
   xml:space="preserve"
   inkscape:version="1.4 (e7c3feb100, 2024-10-09)"
   sodipodi:docname="zero.svg"
   xmlns:inkscape="http://www.inkscape.org/namespaces/inkscape"
   xmlns:sodipodi="http://sodipodi.sourceforge.net/DTD/sodipodi-0.dtd"
   xmlns="http://www.w3.org/2000/svg"
   xmlns:svg="http://www.w3.org/2000/svg"><sodipodi:namedview
     id="namedview7"
     pagecolor="#ffffff"
     bordercolor="#000000"
     borderopacity="0.25"
     inkscape:showpageshadow="2"
     inkscape:pageopacity="0.0"
     inkscape:pagecheckerboard="0"
     inkscape:deskcolor="#d1d1d1"
     inkscape:document-units="px"
     showgrid="false"
     inkscape:zoom="1.0973349"
     inkscape:cx="296.17212"
     inkscape:cy="47.843188"
     inkscape:window-width="1920"
     inkscape:window-height="1008"
     inkscape:window-x="0"
     inkscape:window-y="0"
     inkscape:window-maximized="1"
     inkscape:current-layer="layer1" /><defs
     id="defs2" /><g
     inkscape:label="Capa 1"
     inkscape:groupmode="layer"
     id="layer1"><g
       id="g4"
       transform="matrix(1.2269539,0,0,1.2269539,-155.46411,-300.42675)"
       style="fill:#0074a7;fill-opacity:1"><path
         id="path17"
         style="fill:#0074a7;fill-opacity:1;fill-rule:nonzero;stroke:none;stroke-width:1.87904"
         d="m 221.76623,246.5847 -0.26303,0.55035 c -0.21412,0.44699 -0.27954,0.5529 -0.36794,0.5209 -1.15934,-0.34572 -2.01827,-0.4625 -3.38997,-0.4625 -1.29278,0 -1.8056,0.0659 -2.93677,0.3514 -4.00051,1.01282 -7.23058,4.20712 -8.27908,8.18503 -0.30841,1.15184 -0.37362,1.69508 -0.37362,3.00292 0,1.29091 0.0652,1.84154 0.37362,2.98586 0.70463,2.66448 2.47309,5.13879 4.73356,6.60632 l 0.31574,0.20515 -0.39636,0.89659 c -0.57869,1.3132 -0.71587,1.66425 -0.68936,1.7017 0.0225,0.0161 0.76249,0.032 1.65881,0.032 h 1.62936 l 0.26458,-0.61598 c 0.15393,-0.34562 0.29873,-0.64791 0.33073,-0.66921 2.2e-4,-2.8e-4 7.8e-4,-7.7e-4 0.001,-10e-4 0.0361,-0.0325 0.33316,0.0174 0.66611,0.0971 1.07109,0.25035 1.48992,0.293 2.73006,0.293 1.57087,-0.008 2.7025,-0.20525 4.03851,-0.70486 3.9328,-1.47505 6.75128,-4.91009 7.42022,-9.03459 0.11661,-0.7572 0.11661,-2.8411 0,-3.58893 -0.49231,-3.03274 -2.09891,-5.65933 -4.60178,-7.53081 -0.26505,-0.19175 -0.54322,-0.37793 -0.61082,-0.40463 -0.0709,-0.0372 -0.12402,-0.0858 -0.12402,-0.11782 0,-0.0282 0.22,-0.54334 0.48472,-1.14463 0.27059,-0.59363 0.49196,-1.09501 0.49196,-1.11621 0,-0.0214 -0.70445,-0.0372 -1.55752,-0.0372 z m -93.08475,0.56379 v 4.26537 h 16.89612 l -16.89612,14.23221 v 4.63176 h 23.07662 v -4.27106 h -16.88889 l 16.88889,-14.23944 v -4.61884 z m 26.54153,0 v 23.12934 h 21.24986 v -4.27106 h -16.99224 v -5.14697 h 13.65136 v -4.30103 h -13.65136 v -5.14491 h 16.99224 v -4.26537 z m 24.48532,0.0305 v 23.09885 l 4.22817,0.002 v -7.90495 l 7.55251,-0.0171 6.61355,7.92045 h 4.61677 v -1.18959 l -5.69526,-6.74326 1.27021,-0.003 c 0.82117,0 1.57049,-0.18974 2.25258,-0.58602 0.68397,-0.40401 1.2272,-0.94725 1.62935,-1.62935 0.40401,-0.68961 0.61082,-1.43897 0.61082,-2.25258 v -6.23321 c 0,-0.80796 -0.20655,-1.54798 -0.61082,-2.21692 -0.4021,-0.6821 -0.94538,-1.22485 -1.62935,-1.63659 -0.68209,-0.40374 -1.43141,-0.60875 -2.25258,-0.60875 z m 38.32325,3.53053 c 0.66708,0.0378 1.56309,0.16121 1.63659,0.23461 0.015,0.0226 -0.77786,1.73278 -1.75493,3.80907 -2.27554,4.83855 -2.52376,5.3817 -3.49333,7.53133 -0.44721,0.98459 -0.93201,2.04753 -1.07849,2.35593 -0.14356,0.30106 -0.27336,0.54625 -0.2992,0.55758 l -5.2e-4,5.2e-4 h -5.2e-4 -5.1e-4 c -0.0712,0.002 -0.87517,-0.71372 -1.24179,-1.10846 -0.96019,-1.03535 -1.64247,-2.39226 -1.96577,-3.91242 -0.14115,-0.6896 -0.14115,-2.26782 0,-2.95744 0.35138,-1.67419 1.04118,-2.96514 2.20245,-4.13205 1.62157,-1.64415 3.75809,-2.482 5.99602,-2.37867 z m -33.71216,0.70435 h 13.78314 c 0.11079,0 0.20632,0.0434 0.28732,0.13178 0.089,0.0655 0.13178,0.14659 0.13178,0.25735 v 5.90971 c 0,0.10918 -0.0434,0.18929 -0.13178,0.25529 -0.081,0.066 -0.17656,0.10335 -0.28732,0.10335 h -13.78314 c -0.0959,0 -0.19882,-0.0379 -0.28732,-0.10335 -0.0639,-0.066 -0.0961,-0.14612 -0.0961,-0.25529 V 251.803 c 0,-0.11079 0.0306,-0.19185 0.0961,-0.25735 0.0884,-0.089 0.19142,-0.13178 0.28732,-0.13178 z m 38.05608,0.78962 c 0.0768,-0.0143 0.79127,0.61147 1.20458,1.04645 1.01281,1.07109 1.69494,2.41446 2.02571,3.9703 0.14648,0.68962 0.14648,2.26784 0,2.95744 -0.35138,1.66674 -1.04254,2.96544 -2.20193,4.1398 -1.27583,1.27776 -2.76605,2.04056 -4.55114,2.30528 v -0.003 c -0.71778,0.10417 -1.62167,0.10452 -2.28875,-0.005 -0.27255,-0.0384 -0.52029,-0.0761 -0.55759,-0.0811 -0.047,0 -0.0739,-0.0283 -0.0739,-0.0656 0,-0.0526 6.37765,-14.20366 6.43785,-14.26166 v -5.2e-4 c 1.8e-4,-1.8e-4 0.001,-8.7e-4 0.002,-0.001 l 5.2e-4,-5.2e-4 c 2.4e-4,-1.2e-4 0.001,-9.3e-4 0.002,-0.001 2.9e-4,-8e-5 0.001,-4.6e-4 0.002,-5.2e-4 z" /></g></g></svg>
